<?xml version="1.0" encoding="utf-8"?>
<!-- Generator: Adobe Illustrator 16.0.0, SVG Export Plug-In . SVG Version: 6.00 Build 0)  -->
<!DOCTYPE svg PUBLIC "-//W3C//DTD SVG 1.1//EN" "http://www.w3.org/Graphics/SVG/1.1/DTD/svg11.dtd">
<svg version="1.1" id="Layer_1" xmlns="http://www.w3.org/2000/svg" xmlns:xlink="http://www.w3.org/1999/xlink" x="0px" y="0px"
	 width="18px" height="18px" viewBox="0 0 18 18" enable-background="new 0 0 18 18" xml:space="preserve">
<circle fill="#F1F0F0" cx="9" cy="9" r="8.531"/>
<g>
	<path fill="#2057A7" d="M2.232,3.806c-0.67,0.872-1.175,1.877-1.47,2.969h4.438L2.232,3.806z"/>
	<path fill="#2057A7" d="M17.237,6.775c-0.295-1.092-0.799-2.097-1.47-2.969l-2.969,2.969H17.237z"/>
	<path fill="#2057A7" d="M0.763,11.227c0.294,1.092,0.799,2.096,1.47,2.969l2.969-2.969H0.763L0.763,11.227z"/>
	<path fill="#2057A7" d="M14.194,2.233c-0.872-0.67-1.877-1.175-2.969-1.47v4.438L14.194,2.233z"/>
	<path fill="#2057A7" d="M3.806,15.768c0.872,0.672,1.877,1.176,2.969,1.471v-4.439L3.806,15.768z"/>
	<path fill="#2057A7" d="M6.774,0.763c-1.092,0.294-2.097,0.799-2.969,1.47l2.969,2.969V0.763z"/>
	<path fill="#2057A7" d="M11.226,17.238c1.092-0.295,2.097-0.799,2.969-1.471l-2.969-2.969V17.238z"/>
	<path fill="#2057A7" d="M12.799,11.227l2.969,2.969c0.671-0.873,1.175-1.877,1.47-2.969H12.799z"/>
</g>
<g>
	<path fill="#D81F2A" d="M17.459,7.888h-7.346l0,0V0.542C9.748,0.494,9.377,0.469,9,0.469c-0.377,0-0.749,0.025-1.113,0.072v7.346
		l0,0H0.541C0.494,8.252,0.469,8.623,0.469,9s0.025,0.748,0.072,1.113h7.346l0,0v7.346C8.251,17.506,8.623,17.531,9,17.531
		c0.377,0,0.748-0.025,1.113-0.072v-7.346l0,0h7.346C17.506,9.748,17.531,9.378,17.531,9S17.506,8.252,17.459,7.888z"/>
	<path fill="#D81F2A" d="M11.226,11.227L11.226,11.227l3.807,3.807c0.176-0.176,0.342-0.357,0.501-0.549l-3.258-3.258H11.226
		L11.226,11.227z"/>
	<path fill="#D81F2A" d="M6.774,11.227L6.774,11.227l-3.807,3.807c0.175,0.176,0.358,0.342,0.547,0.5l3.259-3.258V11.227z"/>
	<path fill="#D81F2A" d="M6.774,6.775L6.774,6.775L2.968,2.968C2.792,3.143,2.625,3.326,2.466,3.516l3.259,3.259H6.774L6.774,6.775z
		"/>
	<path fill="#D81F2A" d="M11.226,6.775L11.226,6.775l3.807-3.807c-0.175-0.175-0.357-0.342-0.548-0.502l-3.259,3.259V6.775z"/>
</g>
</svg>
