<?xml version="1.0" encoding="utf-8"?>
<!-- Generator: Adobe Illustrator 16.0.0, SVG Export Plug-In . SVG Version: 6.00 Build 0)  -->
<!DOCTYPE svg PUBLIC "-//W3C//DTD SVG 1.1//EN" "http://www.w3.org/Graphics/SVG/1.1/DTD/svg11.dtd">
<svg version="1.1" id="Layer_1" xmlns="http://www.w3.org/2000/svg" xmlns:xlink="http://www.w3.org/1999/xlink" x="0px" y="0px"
	 width="18px" height="18px" viewBox="0 0 18 18" enable-background="new 0 0 18 18" xml:space="preserve">
<path fill="#F1F0F0" d="M17.547,9c0-1.045-0.188-2.047-0.532-2.973L9,5.656L0.985,6.027C0.641,6.953,0.453,7.955,0.453,9
	s0.188,2.046,0.532,2.972L9,12.345l8.015-0.371C17.359,11.047,17.547,10.046,17.547,9z"/>
<path fill="#2057A7" d="M9,17.547c3.674,0,6.807-2.319,8.015-5.574H0.985C2.192,15.228,5.325,17.547,9,17.547z"/>
<path fill="#D81F2A" d="M0.985,6.027h16.031C15.807,2.773,12.674,0.454,9,0.454C5.325,0.454,2.192,2.773,0.985,6.027z"/>
<g>
	<polygon fill="#4E82C3" points="11.229,6.399 9.743,6.399 9.99,4.542 10.981,3.798 11.973,4.542 11.973,6.027 	"/>
	<polygon fill="#4E82C3" points="6.77,6.399 8.256,6.399 8.009,4.542 7.018,3.798 6.027,4.542 6.027,6.027 	"/>
</g>
<polygon fill="#2057A7" points="9.99,6.399 8.009,6.399 8.009,4.542 9,3.798 9.99,4.542 "/>
<path fill="#F1F0F0" d="M6.027,6.027v4.087c0,0.975,0.47,1.84,1.195,2.383l0.521-0.131l0.656,0.66
	c0.194,0.04,0.396,0.061,0.601,0.061c0.204,0,0.404-0.02,0.598-0.061l0.75-0.623l0.43,0.092c0.725-0.542,1.195-1.407,1.195-2.381
	V6.027H6.027z"/>
<g>
	<rect x="6.027" y="6.027" fill="#D81F2A" width="1.189" height="1.189"/>
	<rect x="8.405" y="6.027" fill="#D81F2A" width="1.188" height="1.189"/>
	<rect x="10.783" y="6.027" fill="#D81F2A" width="1.189" height="1.189"/>
	<rect x="7.216" y="7.217" fill="#D81F2A" width="1.189" height="1.189"/>
	<rect x="9.594" y="7.217" fill="#D81F2A" width="1.189" height="1.189"/>
	<rect x="6.027" y="8.405" fill="#D81F2A" width="1.189" height="1.189"/>
	<rect x="7.216" y="9.595" fill="#D81F2A" width="1.189" height="1.188"/>
	<rect x="8.405" y="8.405" fill="#D81F2A" width="1.188" height="1.189"/>
	<rect x="10.783" y="8.405" fill="#D81F2A" width="1.189" height="1.189"/>
	<rect x="9.594" y="9.595" fill="#D81F2A" width="1.189" height="1.188"/>
	<rect x="8.405" y="10.783" fill="#D81F2A" width="1.188" height="1.188"/>
	<path fill="#D81F2A" d="M7.216,10.783H6.104c0.102,0.442,0.303,0.847,0.578,1.188h0.535V10.783z"/>
	<path fill="#D81F2A" d="M10.783,11.972h0.535c0.275-0.342,0.475-0.746,0.578-1.188h-1.113V11.972z"/>
	<path fill="#D81F2A" d="M7.216,11.972v0.52c0.346,0.261,0.75,0.447,1.189,0.537v-1.057H7.216z"/>
	<path fill="#D81F2A" d="M9.594,11.972v1.057c0.439-0.09,0.844-0.276,1.189-0.537v-0.52H9.594z"/>
</g>
</svg>
